<svg width="36" height="35" viewBox="0 0 36 35" fill="none" xmlns="http://www.w3.org/2000/svg">
<path fill-rule="evenodd" clip-rule="evenodd" d="M24.8104 19.1478C26.8083 20.5041 28.2083 22.3416 28.2083 24.7916V29.1666H34.0416V24.7916C34.0416 21.6124 28.8354 19.7312 24.8104 19.1478Z" fill="#2EC4B6"/>
<path d="M13.625 17.4999C16.8466 17.4999 19.4583 14.8882 19.4583 11.6666C19.4583 8.44492 16.8466 5.83325 13.625 5.83325C10.4033 5.83325 7.79165 8.44492 7.79165 11.6666C7.79165 14.8882 10.4033 17.4999 13.625 17.4999Z" fill="#2EC4B6"/>
<path fill-rule="evenodd" clip-rule="evenodd" d="M22.375 17.4999C25.5979 17.4999 28.2083 14.8895 28.2083 11.6666C28.2083 8.44367 25.5979 5.83325 22.375 5.83325C21.6896 5.83325 21.0479 5.97908 20.4354 6.18325C21.6458 7.68533 22.375 9.59575 22.375 11.6666C22.375 13.7374 21.6458 15.6478 20.4354 17.1499C21.0479 17.3541 21.6896 17.4999 22.375 17.4999Z" fill="#2EC4B6"/>
<path fill-rule="evenodd" clip-rule="evenodd" d="M13.625 18.9583C9.73123 18.9583 1.95831 20.9124 1.95831 24.7916V29.1666H25.2916V24.7916C25.2916 20.9124 17.5187 18.9583 13.625 18.9583Z" fill="#2EC4B6"/>
</svg>
