<svg width="36" height="35" viewBox="0 0 36 35" fill="none" xmlns="http://www.w3.org/2000/svg">
<g id="thumb_up_alt">
<g id="Vector">
<path d="M3.41669 30.625H6.33335C7.13544 30.625 7.79169 29.9688 7.79169 29.1667V16.0417C7.79169 15.2396 7.13544 14.5833 6.33335 14.5833H3.41669V30.625ZM32.3354 20.2417C32.4959 19.8771 32.5834 19.4833 32.5834 19.075V17.5C32.5834 15.8958 31.2709 14.5833 29.6667 14.5833H21.6459L22.9875 7.80208C23.0604 7.48125 23.0167 7.13125 22.8709 6.83958C22.5354 6.18333 22.1125 5.58542 21.5875 5.06042L20.9167 4.375L11.5688 13.7229C11.0146 14.2771 10.7084 15.0208 10.7084 15.7937V27.2271C10.7084 29.0938 12.2396 30.625 14.1209 30.625H25.9479C26.9688 30.625 27.9313 30.0854 28.4563 29.2104L32.3354 20.2417Z" fill="#FF3366"/>
</g>
</g>
</svg>
